<svg width="158" height="77" viewBox="0 0 158 77" fill="none" xmlns="http://www.w3.org/2000/svg">
<path d="M9.74409 33.7095L0 29.22L10.5489 24.3483C10.8479 9.77411 24.9287 6.61471 30.7684 7.18028C36.6081 7.7465 53.5967 18.166 46.7513 39.449C44.4188 46.702 44.9694 65.4679 72.189 63.7348C70.1445 67.5878 60.548 83.5695 29.3135 73.4028C20.6538 70.5841 8.31456 56.6301 9.74409 33.7095Z" fill="#FFBD54"/>
<path d="M98.6133 29.1017C99.4681 18.7784 94.1167 9.4211 90.982 7.26543C88.0566 5.25473 88.0462 13.9353 85.4413 18.6965C81.574 17.0849 77.2893 16.18 72.7738 16.18C68.2668 16.18 63.9893 17.081 60.1284 18.6874C57.5281 13.9236 57.5151 5.25473 54.5923 7.26413C51.4602 9.4107 46.1198 18.7621 46.9597 29.0653C43.7359 33.5872 41.8546 39.0024 41.8546 44.8278C41.8546 60.6502 55.6981 72.3848 72.7732 72.3848C89.8495 72.3848 103.692 60.6502 103.692 44.8278C103.692 39.018 101.82 33.6165 98.6133 29.1017Z" fill="#78C0DE"/>
<path d="M97.1018 46.639C97.9008 32.475 103.31 30.517 104.021 21.8553C105.005 9.86126 113.267 1.14042 117.349 0.0664815C121.431 -1.00485 116.224 11.1673 119.883 15.2985C127.535 12.6456 132.395 14.9046 136.233 19.0567C140.074 23.21 135.061 27.1762 142.578 26.1127C145.67 25.6739 148.884 25.7772 151.574 26.4624C151.829 26.294 152.104 26.1504 152.402 26.047C154.519 25.3144 156.898 26.636 157.719 29.0029C158.029 29.8994 158.069 30.8167 157.887 31.6514C157.981 32.1084 158.02 32.5933 157.99 33.1088C157.576 40.3898 148.603 50.4179 143.029 51.1486C137.455 51.8806 131.536 50.9178 131.385 62.0706C131.184 76.925 98.3032 82.8037 90.2487 67.7231C96.143 63.4592 96.4921 57.4564 97.1018 46.639Z" fill="black"/>
<path d="M121.798 19.7017C125.647 20.0417 128.705 17.9972 131.681 15.705C130.484 15.5574 129.162 15.5483 127.678 15.7173C125.448 11.6855 131.909 2.71049 128.385 2.84051C125.209 2.95362 117.081 7.30592 113.334 15.1947C116.054 17.022 118.218 19.8954 121.798 19.7017Z" fill="black"/>
<path d="M33.9411 30.6431C33.4815 30.5053 33.0076 30.4682 32.5363 30.5358C31.16 30.7321 29.997 31.8113 29.6492 33.205L26.562 44.7395L20.4057 34.5078C19.6334 33.2766 18.2039 32.579 16.8465 32.7727C16.3837 32.8391 15.9559 33.0029 15.5743 33.2616C14.7104 33.7947 14.1149 34.5975 13.8958 35.5258C13.6852 36.4087 13.8438 37.3298 14.3268 38.0995L24.7405 55.5835C24.8152 55.7343 24.9316 55.9527 25.1344 56.1302C25.2053 56.2095 25.2872 56.2745 25.3795 56.3265C25.3795 56.3278 25.3795 56.3278 25.3802 56.3285L25.4725 56.4611L25.6005 56.5579C25.6467 56.593 25.6993 56.6301 25.7591 56.6633L25.7838 56.8362L26.2233 56.9831L26.3579 57.0832L27.3545 57.2984L27.6509 57.3543L27.7991 57.3328C28.0526 57.3458 28.2405 57.3192 28.3491 57.3042C28.4973 57.2834 28.691 57.2555 28.9309 57.171L29.1552 57.1391L29.3385 57.013L30.233 56.4383L30.4163 56.1939C30.4696 56.1347 30.547 56.0496 30.6263 55.9274C30.6887 55.8545 30.742 55.7739 30.7817 55.6862C30.8083 55.6439 30.8356 55.6004 30.861 55.5555C30.8662 55.5471 30.8714 55.5393 30.8759 55.5308C30.9631 55.4372 31.0326 55.3286 31.082 55.211C31.1704 55.0452 31.2419 54.8482 31.2822 54.6604L36.4862 34.9629C36.741 34.0664 36.635 33.1374 36.1878 32.3482C35.7139 31.5103 34.9071 30.9018 33.9411 30.6431Z" fill="white"/>
<path d="M72.5944 30.5052C64.3026 30.6502 57.6269 37.7159 57.714 46.273C57.9273 54.8937 64.6972 61.5804 73.1268 61.4946H73.1359C77.5728 61.4166 81.1638 60.0163 84.1087 57.2138C84.8257 56.5364 85.2171 55.6744 85.2392 54.7221C85.2691 53.4986 84.6807 52.4266 84.11 51.8201C83.4956 51.1161 82.4172 50.7091 81.2126 50.7299C80.0028 50.7514 78.8859 51.2045 78.1286 51.9768C77.1567 52.7062 75.4658 53.1931 73.7893 53.223C73.5526 53.2269 73.3186 53.221 73.0943 53.2067C71.3437 53.0878 69.3551 52.2108 68.3682 51.1213L68.2883 51.0407C67.8391 50.6305 67.4399 50.0486 67.1272 49.3595L83.6718 49.0709C85.8268 49.0332 87.4884 47.694 87.7615 45.7951C87.8258 45.5566 87.8375 45.2959 87.8323 44.9955L87.8239 44.6387C87.1842 36.3059 80.779 30.3622 72.5944 30.5052ZM79.393 41.8816L66.7775 42.102C67.6408 40.3943 69.5507 38.5721 72.7114 38.3407C75.9508 38.5688 78.2514 40.2493 79.393 41.8816Z" fill="white"/>
<path d="M122.868 44.2109C125.124 44.4463 127.225 42.7651 127.457 40.5399C127.693 38.2744 126.019 36.2383 123.725 35.9991L123.51 35.9763L124.209 29.2766C124.449 26.974 122.834 24.9822 120.532 24.7416C118.199 24.4978 116.183 26.1114 115.943 28.4133L115.243 35.1124L114.811 35.0675C112.508 34.8276 110.516 36.4425 110.275 38.7457C110.039 41.0093 111.688 43.0434 113.953 43.2807L114.385 43.3255L112.929 57.2646C112.518 61.1963 115.383 64.7301 119.316 65.141C121.618 65.3815 123.61 63.7673 123.852 61.4635C124.054 59.5301 122.981 57.8158 121.298 57.1476L122.651 44.1875L122.868 44.2109Z" fill="white"/>
</svg>
